<svg version="1.0" xmlns="http://www.w3.org/2000/svg"
 width="105.000000pt" height="99.000000pt" viewBox="0 0 105.000000 99.000000"
 preserveAspectRatio="xMidYMid meet" fill="red">

<g transform="translate(0.000000,99.000000) scale(0.100000,-0.100000)"
fill="#000000" stroke="none">
<path d="M0 495 l0 -495 525 0 525 0 0 495 0 495 -525 0 -525 0 0 -495z m660
220 l0 -35 -130 0 -130 0 0 35 0 35 130 0 130 0 0 -35z m-56 -96 c35 -16 45
-50 48 -167 l3 -102 -37 0 c-28 0 -38 4 -38 16 0 15 -2 15 -25 0 -35 -23 -100
-21 -126 5 -15 15 -19 30 -17 61 4 51 34 76 104 86 41 6 50 11 52 30 3 19 -1
22 -33 22 -22 0 -38 -6 -41 -15 -4 -9 -19 -15 -40 -15 -26 0 -34 4 -34 18 0
22 18 46 45 60 26 15 108 15 139 1z m56 -344 l0 -35 -130 0 -130 0 0 28 c0 16
3 32 7 35 3 4 62 7 130 7 l123 0 0 -35z"/>
<path d="M520 467 c-27 -9 -35 -17 -35 -37 0 -18 6 -26 22 -28 36 -5 63 15 63
48 0 33 -1 34 -50 17z"/>
</g>
</svg>